<svg width="30" height="30" viewBox="0 0 30 30" fill="none" xmlns="http://www.w3.org/2000/svg">
<path d="M3.75 23.25V5.625C3.75 4.58947 4.58943 3.75 5.62497 3.75H7.40618C7.45795 3.75 7.5 3.79197 7.5 3.84375V4.5C7.5 5.32843 8.17157 6 9 6C9.82843 6 10.5 5.32843 10.5 4.5V3.84375C10.5 3.79197 10.542 3.75 10.5937 3.75H13.4043C13.4571 3.75 13.5 3.79287 13.5 3.84574V4.5C13.5 5.32843 14.1716 6 15 6C15.8284 6 16.5 5.32843 16.5 4.5V3.84574C16.5 3.79287 16.5429 3.75 16.5957 3.75H19.4043C19.4571 3.75 19.5 3.79287 19.5 3.84574V4.5C19.5 5.32843 20.1716 6 21 6C21.8284 6 22.5 5.32843 22.5 4.5V3.84574C22.5 3.79287 22.5434 3.75 22.5962 3.75H24.3755C25.411 3.75 26.25 4.58947 26.25 5.625V23.25C26.25 24.9069 24.9069 26.25 23.25 26.25H6.75C5.09315 26.25 3.75 24.9069 3.75 23.25Z" stroke="black" stroke-width="1.5" stroke-linecap="round"/>
<path d="M9 2.25V4.5M15 2.25V4.5M21 2.25V4.5" stroke="black" stroke-width="0.75" stroke-linecap="round"/>
<path d="M22.5 10.5V10.875C23.1213 10.875 23.625 11.3787 23.625 12H24H24.375C24.375 10.9645 23.5355 10.125 22.5 10.125V10.5ZM24 12H23.625V22.5H24H24.375V12H24ZM24 22.5H23.625C23.625 23.1213 23.1213 23.625 22.5 23.625V24V24.375C23.5355 24.375 24.375 23.5355 24.375 22.5H24ZM22.5 24V23.625H7.5V24V24.375H22.5V24ZM7.5 24V23.625C6.87868 23.625 6.375 23.1213 6.375 22.5H6H5.625C5.625 23.5355 6.46447 24.375 7.5 24.375V24ZM6 22.5H6.375V12H6H5.625V22.5H6ZM6 12H6.375C6.375 11.3787 6.87868 10.875 7.5 10.875V10.5V10.125C6.46447 10.125 5.625 10.9645 5.625 12H6ZM7.5 10.5V10.875H22.5V10.5V10.125H7.5V10.5Z" fill="black"/>
<path d="M15 12.75L16.4865 15.204L19.2798 15.8594L17.4052 18.0315L17.645 20.8906L15 19.779L12.355 20.8906L12.5948 18.0315L10.7202 15.8594L13.5135 15.204L15 12.75Z" fill="black"/>
</svg>
