<svg width="30" height="30" viewBox="0 0 30 30" fill="none" xmlns="http://www.w3.org/2000/svg">
<path d="M6 15.7001V6C6 4.34315 7.34534 3 9.00219 3C13.5385 3 16.4615 3 20.9978 3C22.6547 3 24 4.34315 24 6V15.7001M6 15.7001V19.4003C6 21.0572 7.34315 22.4003 9 22.4003H21C22.6569 22.4003 24 21.0572 24 19.4003V15.7001M6 15.7001H24" stroke="black" stroke-width="1.5" stroke-linecap="round"/>
<circle cx="10.5" cy="19.0001" r="1.5" fill="black"/>
<circle cx="19.5" cy="19.0001" r="1.5" fill="black"/>
<path d="M7.5 21.7002H12V24.7002C12 25.5286 11.3284 26.2002 10.5 26.2002H9C8.17157 26.2002 7.5 25.5286 7.5 24.7002V21.7002Z" fill="black"/>
<path d="M18 21.7002H22.5V24.7002C22.5 25.5286 21.8284 26.2002 21 26.2002H19.5C18.6716 26.2002 18 25.5286 18 24.7002V21.7002Z" fill="black"/>
<rect x="8.625" y="5.42529" width="12.75" height="8.025" rx="0.975" stroke="black" stroke-width="0.75"/>
<path d="M25.5 8.2002C26.3284 8.2002 27 8.87177 27 9.7002V11.2002C27 12.0286 26.3284 12.7002 25.5 12.7002V8.2002Z" fill="black"/>
<path d="M4.5 8.2002C3.67157 8.2002 3 8.87177 3 9.7002V11.2002C3 12.0286 3.67157 12.7002 4.5 12.7002V8.2002Z" fill="black"/>
<path d="M16.5 11.2002C16.5 10.3718 17.1716 9.7002 18 9.7002C18.8284 9.7002 19.5 10.3718 19.5 11.2002V12.7002H16.5V11.2002Z" fill="black"/>
<circle cx="17.925" cy="8.42529" r="1.125" fill="black"/>
</svg>
