<svg width="30" height="30" viewBox="0 0 30 30" fill="none" xmlns="http://www.w3.org/2000/svg">
<path d="M16.1729 4.6709L17.2236 6.30273C17.5882 6.86868 18.2856 7.12296 18.9287 6.92383L20.7832 6.34863L22.5791 7.85547L22.3359 9.78223C22.2515 10.4501 22.6225 11.0927 23.2432 11.3535L25.0322 12.1055L25.4404 14.415L24.0156 15.7344C23.5217 16.1916 23.3926 16.9218 23.7002 17.5205L24.5879 19.2471L23.415 21.2783L21.4766 21.373C20.8041 21.4058 20.236 21.8825 20.0869 22.5391L19.6562 24.4326L17.4531 25.2334L15.9072 24.0605C15.371 23.6534 14.629 23.6534 14.0928 24.0605L12.5459 25.2334L10.3428 24.4326L9.91309 22.5391C9.76403 21.8825 9.19589 21.4058 8.52344 21.373L6.58398 21.2783L5.41113 19.2471L6.2998 17.5205C6.60739 16.9218 6.47829 16.1916 5.98438 15.7344L4.55859 14.415L4.9668 12.1055L6.75684 11.3535C7.37746 11.0927 7.74854 10.4501 7.66406 9.78223L7.41992 7.85547L9.21582 6.34863L11.0713 6.92383C11.7144 7.12296 12.4118 6.86868 12.7764 6.30273L13.8271 4.6709H16.1729Z" stroke="black" stroke-width="1.5"/>
<circle cx="15" cy="15" r="5.625" stroke="black" stroke-width="0.75"/>
</svg>
