<svg width="30" height="30" viewBox="0 0 30 30" fill="none" xmlns="http://www.w3.org/2000/svg">
<path d="M26.9658 18.75C26.8494 20.0957 26.4016 21.9238 25.1865 23.5059C23.7551 25.3694 21.1775 27 16.5 27C11.8225 27 9.24487 25.3694 7.81348 23.5059C6.59837 21.9238 6.15059 20.0957 6.03418 18.75H26.9658Z" stroke="black" stroke-width="1.5"/>
<path d="M16.05 16.7999C16.05 16.1105 15.9142 15.4278 15.6504 14.7908C15.3865 14.1539 14.9998 13.5751 14.5123 13.0876C14.0248 12.6001 13.4461 12.2134 12.8091 11.9496C12.1721 11.6857 11.4895 11.5499 10.8 11.5499C10.1106 11.5499 9.42789 11.6857 8.79093 11.9496C8.15397 12.2134 7.57521 12.6001 7.08771 13.0876C6.6002 13.5751 6.21349 14.1539 5.94965 14.7908C5.68581 15.4278 5.55002 16.1105 5.55002 16.7999" stroke="black" stroke-width="0.75" stroke-linecap="round"/>
<path d="M14.25 16.8749C14.25 16.4219 14.1608 15.9732 13.9874 15.5547C13.814 15.1361 13.5599 14.7558 13.2396 14.4354C12.9192 14.115 12.5389 13.8609 12.1203 13.6875C11.7017 13.5142 11.2531 13.4249 10.8 13.4249C10.347 13.4249 9.89835 13.5142 9.47978 13.6875C9.06121 13.8609 8.68088 14.115 8.36052 14.4354C8.04016 14.7558 7.78603 15.1361 7.61265 15.5547C7.43927 15.9732 7.35004 16.4219 7.35004 16.8749" stroke="black" stroke-width="0.75" stroke-linecap="round"/>
<path d="M12.3 16.7999C12.3 16.6029 12.2612 16.4079 12.1858 16.2259C12.1105 16.0439 12 15.8786 11.8607 15.7393C11.7214 15.6 11.556 15.4895 11.374 15.4141C11.1921 15.3387 10.997 15.2999 10.8 15.2999C10.603 15.2999 10.408 15.3387 10.226 15.4141C10.044 15.4895 9.87865 15.6 9.73936 15.7393C9.60007 15.8786 9.48958 16.0439 9.4142 16.2259C9.33882 16.4079 9.30002 16.6029 9.30002 16.7999" stroke="black" stroke-width="0.75" stroke-linecap="round"/>
<path d="M3 3L12.0521 7.11458M12.0521 7.11458L11.7893 7.9081C11.4874 8.81994 12.0273 9.79549 12.9602 10.024L14.5208 10.4062M12.0521 7.11458L15.3437 8.76041M12.0521 7.11458L12.5399 6.48641C13.0777 5.79377 14.0642 5.64452 14.7829 6.14704L16.1667 7.11458" stroke="black" stroke-width="1.5" stroke-linecap="round"/>
<path d="M26.9999 16.7787C26.9999 15.8923 26.8253 15.0145 26.4861 14.1956C26.1469 13.3766 25.6497 12.6325 25.0229 12.0057C24.3961 11.3789 23.652 10.8817 22.833 10.5425C22.0141 10.2033 21.1363 10.0287 20.2499 10.0287C19.3635 10.0287 18.4858 10.2033 17.6668 10.5425C16.8479 10.8817 16.1037 11.3789 15.4769 12.0057C15.1722 12.3105 14.898 12.643 14.6578 12.9984" stroke="black" stroke-width="0.75" stroke-linecap="round"/>
<path d="M24.6857 16.8749C24.6857 16.2924 24.571 15.7156 24.348 15.1774C24.1251 14.6393 23.7984 14.1503 23.3865 13.7384C22.9746 13.3265 22.4856 12.9998 21.9475 12.7769C21.4093 12.5539 20.8325 12.4392 20.25 12.4392C19.6675 12.4392 19.0907 12.5539 18.5525 12.7769C18.0143 12.9998 17.5254 13.3265 17.1135 13.7384C16.7016 14.1503 16.3748 14.6393 16.1519 15.1774C16.1017 15.2987 16.0569 15.422 16.0178 15.5468" stroke="black" stroke-width="0.75" stroke-linecap="round"/>
<path d="M22.1785 16.7788C22.1785 16.5255 22.1286 16.2747 22.0317 16.0408C21.9348 15.8068 21.7927 15.5942 21.6136 15.4151C21.4345 15.236 21.2219 15.0939 20.988 14.997C20.754 14.9001 20.5032 14.8502 20.2499 14.8502C19.9967 14.8502 19.7459 14.9001 19.5119 14.997C19.2779 15.0939 19.0653 15.236 18.8862 15.4151C18.7071 15.5942 18.5651 15.8068 18.4682 16.0408C18.3712 16.2747 18.3214 16.5255 18.3214 16.7788" stroke="black" stroke-width="0.75" stroke-linecap="round"/>
</svg>
