<svg width="30" height="30" viewBox="0 0 30 30" fill="none" xmlns="http://www.w3.org/2000/svg">
<path d="M10.0593 4.26117C10.1897 3.87011 10.6125 3.65924 11.0036 3.78949C12.0988 4.15482 13.5595 5.49229 13.5554 8.04633C14.0618 7.79194 14.6462 7.58531 15.2878 7.48676C16.5805 7.28829 18.0619 7.53344 19.5358 8.60687L21.3874 6.75629C21.6501 6.49359 22.0667 6.46402 22.364 6.68695C24.7852 8.5032 25.7957 10.911 26.071 13.1508C26.3435 15.3699 25.9 17.4475 25.3952 18.7094C25.242 19.0918 24.808 19.2779 24.4255 19.1254C24.0427 18.9723 23.8564 18.5376 24.0095 18.1547C24.4336 17.0944 24.8266 15.2699 24.5886 13.3325C24.3732 11.5804 23.6441 9.75625 21.9655 8.28851L20.1247 10.1303L8.11493 22.1401C9.32886 23.2281 11.2243 24.3577 13.4724 24.6713C16.0267 25.0275 19.126 24.3456 22.3161 21.1557C22.6077 20.8642 23.0812 20.8641 23.3727 21.1557C23.6636 21.4473 23.6639 21.92 23.3727 22.2114C19.8748 25.7093 16.3154 26.5762 13.2653 26.1508C10.2612 25.7316 7.83802 24.072 6.50848 22.6596C6.2319 22.3657 6.23875 21.9049 6.52411 21.6196L18.4636 9.67914C17.3801 8.95643 16.3654 8.83267 15.5143 8.96332C14.4616 9.12506 13.6028 9.68641 13.154 10.1352C12.9341 10.355 12.6002 10.4149 12.3171 10.2866C10.3716 9.40226 8.96152 9.31715 7.97528 9.61078C7.0061 9.89957 6.32016 10.5919 5.88446 11.5434C5.44317 12.5072 5.27457 13.7115 5.362 14.9086C5.44959 16.1071 5.78892 17.2321 6.29169 18.0366C6.50963 18.386 6.40351 18.8463 6.05438 19.0649C5.70484 19.2833 5.24375 19.1769 5.02509 18.8276C4.36688 17.7743 3.97393 16.4018 3.87274 15.017C3.77154 13.6307 3.95821 12.1637 4.52704 10.9213C5.10161 9.66674 6.08223 8.61704 7.54852 8.18011C8.79083 7.81003 10.287 7.90944 12.0378 8.55804C12.257 6.23196 11.0141 5.36658 10.5319 5.20551C10.1408 5.07512 9.92899 4.65232 10.0593 4.26117ZM14.3083 20.2446C14.5109 19.8856 15.2191 19.9009 15.8893 20.2787C16.5596 20.6567 16.9385 21.2545 16.736 21.6137C16.5334 21.9727 15.8262 21.9573 15.1559 21.5795C14.4856 21.2016 14.1058 20.6038 14.3083 20.2446ZM17.3327 17.1674C17.6237 16.8756 18.3011 17.0789 18.8464 17.6215C19.3919 18.1644 19.5982 18.841 19.3073 19.1332C19.0165 19.4254 18.339 19.2227 17.7936 18.6801C17.2482 18.1372 17.0418 17.4597 17.3327 17.1674ZM20.2722 13.3276C20.6014 13.0795 21.2441 13.3766 21.7077 13.9907C22.1712 14.6048 22.2799 15.3038 21.9509 15.5522C21.6217 15.8004 20.9789 15.5042 20.5153 14.8901C20.0517 14.2759 19.9431 13.576 20.2722 13.3276Z" fill="black"/>
</svg>
