<svg width="30" height="30" viewBox="0 0 30 30" fill="none" xmlns="http://www.w3.org/2000/svg">
<path d="M15.3694 25.8694C18.2634 25.8694 20.8737 24.6545 22.7181 22.707C24.4356 20.8935 25.489 18.4446 25.489 15.7498C25.489 13.0549 24.4356 10.6061 22.7181 8.79254" stroke="black" stroke-width="1.76391" stroke-linecap="round"/>
<path d="M15.3694 5.6301C12.4754 5.6301 9.8651 6.84494 8.02069 8.79247C6.30321 10.606 5.24982 13.0548 5.24982 15.7497C5.24982 18.4446 6.30321 20.8934 8.02069 22.7069" stroke="black" stroke-width="1.76391" stroke-linecap="round"/>
<path d="M13.8889 3.2205L16.3681 5.30082C16.5126 5.42202 16.5314 5.63736 16.4102 5.7818L14.3299 8.26104" stroke="black" stroke-width="1.76391" stroke-linecap="round"/>
<path d="M16.4095 23.2386L14.3291 25.7178C14.2079 25.8623 14.2268 26.0776 14.3712 26.1988L16.8505 28.2792" stroke="black" stroke-width="1.76391" stroke-linecap="round"/>
</svg>
