<svg width="30" height="30" viewBox="0 0 30 30" fill="none" xmlns="http://www.w3.org/2000/svg">
<path d="M13.9148 6.65753C16.7821 3.56629 21.3253 2.70161 24.0535 5.23175C26.7816 7.76231 26.2607 12.3582 23.3933 15.4495C21.9028 17.0563 19.9804 18.0535 18.0896 18.2962C15.5947 18.6632 13.9737 18.9045 12.1062 20.7718C12.0263 20.8518 11.9673 20.9104 11.9265 20.9505C11.9029 20.9738 11.8507 21.026 11.8103 21.0589C11.8072 21.061 11.7878 21.0729 11.7615 21.0911L11.1013 21.7523L10.4685 22.4085L10.4588 22.4163L8.61014 24.2679L8.60916 24.2689L7.27518 25.6038C7.13867 25.7403 6.8648 26 6.51346 26.1429C6.32687 26.2187 6.08395 26.2761 5.81229 26.2376C5.52994 26.1976 5.2793 26.062 5.07498 25.8577L4.43826 25.223L4.38651 25.1702L4.34549 25.1087C4.02891 24.6338 4.08152 23.8884 4.69315 23.2767L5.90018 22.0628L7.69803 20.2278L8.33572 19.5316L8.35037 19.5159L9.52615 18.303C10.3194 17.4369 10.7675 16.7179 11.0379 15.9681C11.3249 15.1719 11.4332 14.2892 11.4842 13.0618C11.3213 10.8999 12.1918 8.51533 13.9148 6.65753ZM5.75076 24.3314L5.74881 24.3323C5.73227 24.3489 5.71952 24.3654 5.70779 24.3792L6.03397 24.7054C6.04188 24.6997 6.05253 24.6965 6.06131 24.6898C6.11403 24.649 6.16699 24.5997 6.21854 24.5482L6.92361 23.8431L6.51639 23.5589L5.75076 24.3314ZM20.4402 20.015C21.5395 20.015 22.4312 20.906 22.4314 22.0052C22.4314 23.1046 21.5396 23.9964 20.4402 23.9964C19.3411 23.996 18.45 23.1044 18.45 22.0052C18.4502 20.9062 19.3413 20.0153 20.4402 20.015ZM7.57986 22.4808L7.99588 22.7708L8.77029 21.9954L8.34354 21.7025L7.57986 22.4808ZM9.42264 20.555L9.37869 20.6028L9.83377 20.9153L10.0359 20.7054L10.0457 20.6976L10.6306 20.1107L10.1844 19.7698L9.42264 20.555ZM12.4431 16.4739C12.1698 17.2322 11.7646 17.9318 11.1873 18.6575L11.7439 19.0823C12.5867 18.3744 13.4125 17.9192 14.2576 17.6048C13.9009 17.4025 13.5626 17.1609 13.2537 16.8743C13.0613 16.6958 12.8838 16.5056 12.7224 16.305C12.668 16.2372 12.617 16.1667 12.5662 16.097C12.5285 16.2235 12.4881 16.3493 12.4431 16.4739ZM16.743 16.8372C17.3977 16.8958 18.0952 16.8266 18.7976 16.6302L17.8943 15.7064L16.743 16.8372ZM14.3474 15.847C14.5875 16.0581 14.8475 16.2372 15.1258 16.3812C15.4491 16.5484 15.8 16.671 16.1697 16.7503L17.5711 15.3763L16.2263 14.0013L14.3474 15.847ZM18.2263 15.3831L19.2908 16.471C19.906 16.2463 20.5174 15.9234 21.0994 15.5003L19.6316 14.0042L18.2263 15.3831ZM13.0887 13.681C13.2339 14.3143 13.5013 14.8895 13.8865 15.3685C13.9286 15.4208 13.9733 15.4713 14.0183 15.5218L15.9021 13.6702L14.5291 12.2659L13.0887 13.681ZM19.9617 13.679L21.4685 15.2161C21.7554 14.981 22.034 14.7211 22.2996 14.4349C22.4995 14.2194 22.6824 13.9969 22.8523 13.7718L21.3699 12.2991L19.9617 13.679ZM16.5574 13.6761L17.9021 15.0511L19.3074 13.6722L17.9588 12.2972L16.5574 13.6761ZM21.699 11.9749L23.1248 13.39C23.556 12.745 23.8711 12.0741 24.073 11.4056L23.1814 10.5218L21.699 11.9749ZM18.2888 11.973L19.6375 13.3489L21.0408 11.973L19.6707 10.6146L18.2888 11.973ZM14.8601 11.9407L16.2332 13.345L17.6346 11.9661L16.2596 10.5648L14.8601 11.9407ZM13.1844 10.889C12.9759 11.6573 12.9141 12.418 12.9939 13.1253L14.2058 11.9349L13.1844 10.889ZM20.0008 10.2894L21.3709 11.6487L22.8523 10.1956L21.4793 8.83527L20.0008 10.2894ZM16.5906 10.2405L17.9646 11.6419L19.3416 10.2884L17.949 8.90558L16.5906 10.2405ZM14.2928 8.55792C13.8772 9.14967 13.5603 9.76666 13.3406 10.386L14.5359 11.6107L15.9353 10.2337L14.2928 8.55792ZM23.5115 10.1985L24.2068 10.886C24.3178 10.3734 24.3617 9.86744 24.3426 9.38116L23.5115 10.1985ZM18.2781 8.57941L19.6726 9.9632L21.1502 8.50909L19.7556 7.12726L18.2781 8.57941ZM15.8972 6.86945C15.6601 7.05234 15.4291 7.25224 15.2049 7.46808C15.1389 7.53467 15.0732 7.60253 15.0086 7.67218C14.8542 7.83865 14.7086 8.00835 14.5721 8.18097L16.2654 9.90948L17.6199 8.57843L15.8972 6.86945ZM21.8094 8.51007L23.1824 9.87238L24.2869 8.78741C24.2253 8.38661 24.1168 8.0052 23.9637 7.6507C23.8258 7.37716 23.6612 7.11915 23.4666 6.88214L21.8094 8.51007ZM18.2498 5.63507C17.5803 5.84051 16.9119 6.16061 16.2762 6.59406L17.95 8.25421L19.4275 6.80109L18.2498 5.63507ZM20.0867 6.80304L21.4803 8.18488L23.1512 6.54132C23.1313 6.52215 23.1128 6.50154 23.0926 6.48273C22.6053 6.03079 22.0189 5.71593 21.3748 5.53644L20.0867 6.80304ZM20.8338 5.41827C20.1783 5.31601 19.4783 5.34438 18.7703 5.49933L19.7566 6.47687L20.8338 5.41827Z" fill="black"/>
</svg>
