<svg width="30" height="30" viewBox="0 0 30 30" fill="none" xmlns="http://www.w3.org/2000/svg">
<path d="M6.75 9V8.25C6.75 7.83579 7.08579 7.5 7.5 7.5H10.5C10.9142 7.5 11.25 7.83579 11.25 8.25V9" stroke="black" stroke-width="1.5" stroke-linecap="round"/>
<path d="M9.75 7.5V5.25C9.75 4.83579 10.0858 4.5 10.5 4.5H13.5C13.9142 4.5 14.25 4.83579 14.25 5.25V9" stroke="black" stroke-width="1.5" stroke-linecap="round"/>
<path d="M5.60547 11.25H21C21.4142 11.25 21.75 11.5858 21.75 12V19.5C21.75 19.9142 21.4142 20.25 21 20.25H7.21289C6.85928 20.25 6.55364 20.003 6.47949 19.6572L4.87207 12.1572C4.77202 11.6903 5.12799 11.25 5.60547 11.25Z" stroke="black" stroke-width="1.5"/>
<circle cx="5.25" cy="24.75" r="1.5" fill="black"/>
<circle cx="24.75" cy="24.75" r="1.5" fill="black"/>
<path d="M9 13.5V18M12 13.5V18M15 13.5V18M18 13.5V18" stroke="black" stroke-width="0.75" stroke-linecap="round"/>
<path d="M26.25 9H25.5C24.6716 9 24 9.67157 24 10.5V22.5M24 22.5L24.75 24M24 22.5H6.92705C6.35889 22.5 5.8395 22.821 5.58541 23.3292L5.25 24" stroke="black" stroke-width="1.5" stroke-linecap="round"/>
<path d="M14.25 6.75H19.5C19.9142 6.75 20.25 7.08579 20.25 7.5V9" stroke="black" stroke-width="1.5" stroke-linecap="round"/>
</svg>
