<svg width="20" height="20" viewBox="0 0 20 20" fill="none" xmlns="http://www.w3.org/2000/svg">
<mask id="path-1-inside-1_3001_7668" fill="white">
<path d="M10 1.5C14.6944 1.5 18.5 5.30558 18.5 10C18.5 14.6944 14.6944 18.5 10 18.5C5.30558 18.5 1.5 14.6944 1.5 10C1.5 5.30558 5.30558 1.5 10 1.5ZM14.666 6.09277C14.4413 5.93229 14.1283 5.98436 13.9678 6.20898L9.31055 12.7285L5.97852 9.39648C5.78325 9.20122 5.46675 9.20122 5.27148 9.39648C5.07622 9.59175 5.07622 9.90825 5.27148 10.1035L9.43848 14.2705L9.78223 13.791L14.7822 6.79102C14.9427 6.56634 14.8906 6.2533 14.666 6.09277Z"/>
</mask>
<path d="M10 1.5C14.6944 1.5 18.5 5.30558 18.5 10C18.5 14.6944 14.6944 18.5 10 18.5C5.30558 18.5 1.5 14.6944 1.5 10C1.5 5.30558 5.30558 1.5 10 1.5ZM14.666 6.09277C14.4413 5.93229 14.1283 5.98436 13.9678 6.20898L9.31055 12.7285L5.97852 9.39648C5.78325 9.20122 5.46675 9.20122 5.27148 9.39648C5.07622 9.59175 5.07622 9.90825 5.27148 10.1035L9.43848 14.2705L9.78223 13.791L14.7822 6.79102C14.9427 6.56634 14.8906 6.2533 14.666 6.09277Z" fill="#5D52FF"/>
<path d="M10 1.5V0.5V1.5ZM18.5 10H19.5H18.5ZM10 18.5V19.5V18.5ZM1.5 10H0.5H1.5ZM14.666 6.09277L15.2474 5.27917L15.2473 5.27904L14.666 6.09277ZM13.9678 6.20898L13.1542 5.62757L13.1541 5.62771L13.9678 6.20898ZM9.31055 12.7285L8.60344 13.4356L9.43812 14.2703L10.1243 13.3098L9.31055 12.7285ZM5.27148 9.39648L4.56438 8.68938L5.27148 9.39648ZM9.43848 14.2705L8.73137 14.9776L9.56462 15.8109L10.2512 14.8532L9.43848 14.2705ZM9.78223 13.791L10.595 14.3737L10.596 14.3723L9.78223 13.791ZM14.7822 6.79102L15.596 7.37225L14.7822 6.79102ZM10 1.5V2.5C14.1421 2.5 17.5 5.85786 17.5 10H18.5H19.5C19.5 4.75329 15.2467 0.5 10 0.5V1.5ZM18.5 10H17.5C17.5 14.1421 14.1421 17.5 10 17.5V18.5V19.5C15.2467 19.5 19.5 15.2467 19.5 10H18.5ZM10 18.5V17.5C5.85786 17.5 2.5 14.1421 2.5 10H1.5H0.5C0.5 15.2467 4.75329 19.5 10 19.5V18.5ZM1.5 10H2.5C2.5 5.85786 5.85786 2.5 10 2.5V1.5V0.5C4.75329 0.5 0.5 4.75329 0.5 10H1.5ZM14.666 6.09277L15.2473 5.27904C14.5735 4.79776 13.6359 4.95344 13.1542 5.62757L13.9678 6.20898L14.7814 6.7904C14.6207 7.01528 14.3092 7.06682 14.0848 6.90651L14.666 6.09277ZM13.9678 6.20898L13.1541 5.62771L8.49684 12.1472L9.31055 12.7285L10.1243 13.3098L14.7815 6.79026L13.9678 6.20898ZM9.31055 12.7285L10.0177 12.0214L6.68562 8.68938L5.97852 9.39648L5.27141 10.1036L8.60344 13.4356L9.31055 12.7285ZM5.97852 9.39648L6.68562 8.68938C6.09984 8.10359 5.15016 8.10359 4.56438 8.68938L5.27148 9.39648L5.97859 10.1036C5.78333 10.2989 5.46667 10.2989 5.27141 10.1036L5.97852 9.39648ZM5.27148 9.39648L4.56438 8.68938C3.97859 9.27516 3.97859 10.2248 4.56438 10.8106L5.27148 10.1035L5.97859 9.39641C6.17385 9.59167 6.17385 9.90833 5.97859 10.1036L5.27148 9.39648ZM5.27148 10.1035L4.56438 10.8106L8.73137 14.9776L9.43848 14.2705L10.1456 13.5634L5.97859 9.39641L5.27148 10.1035ZM9.43848 14.2705L10.2512 14.8532L10.595 14.3737L9.78223 13.791L8.9695 13.2084L8.62575 13.6879L9.43848 14.2705ZM9.78223 13.791L10.596 14.3723L15.596 7.37225L14.7822 6.79102L13.9685 6.20978L8.96849 13.2098L9.78223 13.791ZM14.7822 6.79102L15.596 7.37225C16.0772 6.69847 15.9216 5.76092 15.2474 5.27917L14.666 6.09277L14.0846 6.90638C13.8597 6.74568 13.8082 6.43421 13.9685 6.20978L14.7822 6.79102Z" fill="#5D52FF" mask="url(#path-1-inside-1_3001_7668)"/>
</svg>
