<svg width="30" height="30" viewBox="0 0 30 30" fill="none" xmlns="http://www.w3.org/2000/svg">
<path d="M3.75 23.25V5.625C3.75 4.58947 4.58943 3.75 5.62497 3.75H7.40618C7.45795 3.75 7.5 3.79197 7.5 3.84375V4.5C7.5 5.32843 8.17157 6 9 6C9.82843 6 10.5 5.32843 10.5 4.5V3.84375C10.5 3.79197 10.542 3.75 10.5937 3.75H13.4043C13.4571 3.75 13.5 3.79287 13.5 3.84574V4.5C13.5 5.32843 14.1716 6 15 6C15.8284 6 16.5 5.32843 16.5 4.5V3.84574C16.5 3.79287 16.5429 3.75 16.5957 3.75H19.4043C19.4571 3.75 19.5 3.79287 19.5 3.84574V4.5C19.5 5.32843 20.1716 6 21 6C21.8284 6 22.5 5.32843 22.5 4.5V3.84574C22.5 3.79287 22.5434 3.75 22.5962 3.75H24.3755C25.411 3.75 26.25 4.58947 26.25 5.625V23.25C26.25 24.9069 24.9069 26.25 23.25 26.25H6.75C5.09315 26.25 3.75 24.9069 3.75 23.25Z" stroke="black" stroke-width="1.5" stroke-linecap="round"/>
<path d="M9 2.25V4.5M15 2.25V4.5M21 2.25V4.5" stroke="black" stroke-width="0.75" stroke-linecap="round"/>
<path d="M18.6121 12.9861C19.028 12.9861 19.4003 13.0458 19.7283 13.1658C20.0602 13.2818 20.3401 13.4423 20.5681 13.6462C20.796 13.8502 20.9696 14.0882 21.0896 14.3601C21.2136 14.6321 21.2761 14.9241 21.2761 15.2361C21.2761 15.5121 21.2463 15.7565 21.1863 15.9685C21.1303 16.1764 21.0444 16.3585 20.9285 16.5144C20.8165 16.6704 20.6756 16.8019 20.5076 16.9099C20.3436 17.0178 20.1541 17.1085 19.9382 17.1804C20.9381 17.5085 21.4382 18.1746 21.4382 19.1785C21.4382 19.6224 21.3561 20.0143 21.1921 20.3542C21.0282 20.6902 20.8079 20.972 20.532 21.2C20.256 21.4279 19.9341 21.6006 19.5662 21.7166C19.2022 21.8286 18.8197 21.8845 18.4197 21.8845C17.9958 21.8845 17.6215 21.836 17.2976 21.74C16.9739 21.644 16.688 21.5002 16.4402 21.3083C16.1963 21.1164 15.9862 20.8764 15.8103 20.5886C15.6343 20.2966 15.4804 19.9561 15.3484 19.5681L16.0798 19.2683C16.2718 19.1883 16.45 19.1659 16.614 19.2019C16.782 19.2379 16.9024 19.3266 16.9744 19.4666C17.0543 19.6184 17.1384 19.7586 17.2263 19.8865C17.3183 20.0143 17.4201 20.1265 17.532 20.2224C17.6439 20.3144 17.77 20.3862 17.9099 20.4382C18.0539 20.4902 18.2181 20.5164 18.4021 20.5164C18.6339 20.5163 18.8357 20.478 19.0076 20.4021C19.1796 20.3261 19.3242 20.2282 19.4402 20.1082C19.5561 19.9842 19.642 19.846 19.698 19.6941C19.758 19.5381 19.7878 19.3841 19.7878 19.2322C19.7878 19.0322 19.7701 18.8521 19.7341 18.6921C19.6981 18.5282 19.6141 18.3901 19.4822 18.2781C19.3542 18.1621 19.162 18.0744 18.906 18.0144C18.654 17.9504 18.3098 17.9177 17.8738 17.9177V16.7546C18.2378 16.7546 18.5363 16.7238 18.7683 16.6638C19.0001 16.6038 19.1823 16.5198 19.3142 16.4119C19.446 16.3039 19.5358 16.1741 19.5837 16.0222C19.6357 15.8702 19.6619 15.7042 19.6619 15.5242C19.6619 15.1442 19.5621 14.854 19.3621 14.6541C19.1661 14.4541 18.8861 14.3543 18.5222 14.3542C18.3622 14.3542 18.2139 14.3785 18.0779 14.4265C17.946 14.4705 17.8255 14.5321 17.7175 14.6121C17.6136 14.692 17.5239 14.7864 17.448 14.8943C17.3721 15.0022 17.316 15.12 17.28 15.2478C17.204 15.4478 17.106 15.5821 16.9861 15.6501C16.8661 15.7141 16.6916 15.7281 16.4636 15.6921L15.5945 15.5359C15.6585 15.1122 15.778 14.7405 15.9539 14.4207C16.1299 14.1007 16.35 13.8338 16.614 13.6218C16.878 13.4099 17.1785 13.2522 17.5144 13.1482C17.8543 13.0403 18.2202 12.9861 18.6121 12.9861ZM11.6091 12.9861C12.0211 12.9861 12.3952 13.0486 12.7312 13.1726C13.0711 13.2926 13.3614 13.4624 13.6013 13.6824C13.8412 13.8983 14.027 14.1606 14.1589 14.4685C14.2909 14.7764 14.3572 15.1162 14.3572 15.488C14.3572 15.8078 14.3114 16.1039 14.2195 16.3757C14.1275 16.6477 14.0006 16.908 13.8406 17.156C13.6846 17.4 13.5027 17.6379 13.2947 17.8699C13.0868 18.1018 12.8674 18.3361 12.6355 18.572L10.7869 20.4626C10.9909 20.4026 11.1933 20.356 11.3933 20.324C11.5931 20.288 11.7809 20.2703 11.9568 20.2703H13.9128C14.0928 20.2703 14.2328 20.3207 14.3328 20.4207C14.4367 20.5206 14.489 20.6522 14.489 20.8162V21.7878H8.45288V21.2478C8.45294 21.1439 8.47534 21.0317 8.51929 20.9119C8.5633 20.788 8.63707 20.6758 8.74097 20.5759L11.321 17.99C11.541 17.77 11.7351 17.5601 11.9031 17.3601C12.071 17.1562 12.211 16.9583 12.323 16.7664C12.4349 16.5705 12.519 16.3725 12.575 16.1726C12.631 15.9726 12.6589 15.7617 12.6589 15.5417C12.6589 15.154 12.5591 14.8598 12.3591 14.6599C12.1592 14.4561 11.8772 14.3543 11.5134 14.3542C11.3534 14.3542 11.2051 14.3785 11.0691 14.4265C10.9371 14.4705 10.8167 14.5321 10.7087 14.6121C10.6048 14.692 10.5152 14.7863 10.4392 14.8943C10.3633 15.0022 10.3072 15.12 10.2712 15.2478C10.1993 15.4477 10.1012 15.5821 9.97729 15.6501C9.85729 15.7141 9.68469 15.7281 9.46069 15.6921L8.58472 15.5359C8.6487 15.1121 8.76921 14.7405 8.94507 14.4207C9.12107 14.1007 9.34122 13.8338 9.60522 13.6218C9.86916 13.4099 10.1716 13.2522 10.5115 13.1482C10.8514 13.0403 11.2173 12.9861 11.6091 12.9861Z" fill="black"/>
<path d="M6.4502 22.9501V10.9501C6.4502 10.5359 6.78598 10.2001 7.2002 10.2001H22.9502C23.3644 10.2001 23.7002 10.5359 23.7002 10.9501V22.9501C23.7002 23.3643 23.3644 23.7001 22.9502 23.7001H7.2002C6.78598 23.7001 6.4502 23.3643 6.4502 22.9501Z" stroke="black" stroke-width="1.5"/>
</svg>
