<svg width="21" height="21" viewBox="0 0 21 21" fill="none" xmlns="http://www.w3.org/2000/svg">
<path d="M3 14.5293V7.59576C3 6.49119 3.89549 5.59576 5.00006 5.59576H7.37554C7.52907 5.59576 7.67248 5.52522 7.76727 5.40444L8.34986 4.66203C8.44464 4.54124 8.58967 4.4707 8.74321 4.4707H12.2755C12.4183 4.4707 12.5543 4.53178 12.6492 4.63853L13.3508 5.42794C13.4457 5.53469 13.5804 5.59576 13.7232 5.59576H15.9997C17.1043 5.59576 18 6.49119 18 7.59576V14.5293C18 15.6339 17.1046 16.5293 16 16.5293H5C3.89543 16.5293 3 15.6339 3 14.5293Z" stroke="white" stroke-linecap="round"/>
<path d="M10.5 8C12.1569 8 13.5 9.34315 13.5 11C13.5 12.6569 12.1569 14 10.5 14C8.84315 14 7.5 12.6569 7.5 11C7.5 9.34315 8.84315 8 10.5 8Z" fill="white"/>
<path d="M5.5 7C6.05228 7 6.5 7.44772 6.5 8C6.5 8.55228 6.05228 9 5.5 9C4.94772 9 4.5 8.55228 4.5 8C4.5 7.44772 4.94772 7 5.5 7Z" fill="white"/>
<path d="M10.5 7.25C12.5711 7.25 14.25 8.92893 14.25 11C14.25 13.0711 12.5711 14.75 10.5 14.75C8.42893 14.75 6.75 13.0711 6.75 11C6.75 8.92893 8.42893 7.25 10.5 7.25Z" stroke="white" stroke-width="0.5"/>
</svg>
