<svg width="24" height="24" viewBox="0 0 24 24"
    xmlns="http://www.w3.org/2000/svg" fill="none">
    <path d="M18.6 3C19.9 3 21 4.1 21 5.4V18.6C21 19.9 19.9 21 18.6 21H5.4C4.1 21 3 19.9 3 18.6V5.4C3 4.1 4.1 3 5.4 3H18.6Z
           M6.6 15.6C6.3 15.6 6 15.9 6 16.2C6 16.5 6.3 16.8 6.6 16.8H17.4C17.7 16.8 18 16.5 18 16.2C18 15.9 17.7 15.6 17.4 15.6H6.6Z
           M6.6 11.4C6.3 11.4 6 11.7 6 12C6 12.3 6.3 12.6 6.6 12.6H17.4C17.7 12.6 18 12.3 18 12C18 11.7 17.7 11.4 17.4 11.4H6.6Z
           M6.6 7.2C6.3 7.2 6 7.5 6 7.8C6 8.1 6.3 8.4 6.6 8.4H17.4C17.7 8.4 18 8.1 18 7.8C18 7.5 17.7 7.2 17.4 7.2H6.6Z"
        fill="#1F1F1F"/>
</svg>