<svg width="30" height="30" viewBox="0 0 30 30" fill="none" xmlns="http://www.w3.org/2000/svg">
<path fill-rule="evenodd" clip-rule="evenodd" d="M6.75 14.25H12.375C13.4105 14.25 14.25 15.0895 14.25 16.125V22.875C14.25 23.9105 13.4105 24.75 12.375 24.75H6.75C5.92157 24.75 5.25 24.0784 5.25 23.25V15.75C5.25 14.9216 5.92157 14.25 6.75 14.25ZM3.75 15.75C3.75 14.0931 5.09315 12.75 6.75 12.75H12.375C14.239 12.75 15.75 14.261 15.75 16.125V22.875C15.75 24.739 14.239 26.25 12.375 26.25H6.75C5.09315 26.25 3.75 24.9069 3.75 23.25V15.75ZM24.75 18V24C24.75 24.4142 24.4142 24.75 24 24.75H19.5C19.0858 24.75 18.75 24.4142 18.75 24V18C18.75 17.5858 19.0858 17.25 19.5 17.25H24C24.4142 17.25 24.75 17.5858 24.75 18ZM26.25 24V18C26.25 16.7574 25.2426 15.75 24 15.75H19.5C18.2574 15.75 17.25 16.7574 17.25 18V24C17.25 25.2426 18.2574 26.25 19.5 26.25H24C25.2426 26.25 26.25 25.2426 26.25 24Z" fill="black"/>
<circle cx="9.75" cy="7.5" r="3" stroke="black" stroke-width="1.5"/>
<circle cx="21.75" cy="11.25" r="2.25" stroke="black" stroke-width="1.5"/>
</svg>
