<svg width="30" height="30" viewBox="0 0 30 30" fill="none" xmlns="http://www.w3.org/2000/svg">
<path d="M25.5 8.25V7.5C25.5 5.84315 24.1569 4.5 22.5 4.5H7.5C5.84315 4.5 4.5 5.84315 4.5 7.5V22.5C4.5 24.1569 5.84315 25.5 7.5 25.5H22.5C24.1569 25.5 25.5 24.1569 25.5 22.5V12.3621C25.5 12.2285 25.3384 12.1616 25.2439 12.2561L21.1061 16.3939C21.0475 16.4525 20.9525 16.4525 20.8939 16.3939L18.1061 13.6061C18.0475 13.5475 17.9525 13.5475 17.8939 13.6061L14.342 17.158C14.2892 17.2108 14.2056 17.2167 14.1459 17.1719L11.3541 15.0781C11.2944 15.0333 11.2108 15.0392 11.158 15.092L8.25 18" stroke="black" stroke-width="1.5" stroke-linecap="round"/>
</svg>
