<svg width="30" height="30" viewBox="0 0 30 30" fill="none" xmlns="http://www.w3.org/2000/svg">
<path d="M9 4.5H21V12C21 15.3137 18.3137 18 15 18C11.6863 18 9 15.3137 9 12V4.5Z" stroke="black" stroke-width="1.5"/>
<path d="M14.7576 8.58265C14.8774 8.41825 15.1226 8.41825 15.2424 8.58265L16.0344 9.66928C16.0715 9.72023 16.1238 9.75819 16.1837 9.77776L17.4619 10.1952C17.6553 10.2583 17.731 10.4916 17.6117 10.6563L16.823 11.7453C16.786 11.7964 16.7661 11.8578 16.766 11.9208L16.764 13.2654C16.7637 13.4689 16.5653 13.613 16.3717 13.5504L15.0923 13.1368C15.0323 13.1174 14.9677 13.1174 14.9077 13.1368L13.6283 13.5504C13.4347 13.613 13.2363 13.4689 13.236 13.2654L13.234 11.9208C13.2339 11.8578 13.214 11.7964 13.177 11.7453L12.3883 10.6563C12.269 10.4916 12.3447 10.2583 12.5381 10.1952L13.8163 9.77776C13.8762 9.75819 13.9285 9.72023 13.9656 9.66928L14.7576 8.58265Z" stroke="black" stroke-width="1.5"/>
<path d="M15 18.75V24.75M15 25.5H20.25M15 25.5H9.75M15 25.5V24.75M15 24.75H12M15 24.75H18" stroke="black" stroke-width="1.5" stroke-linecap="round"/>
<path d="M21.75 6.75H25.5C25.5 11.25 24 14.25 21 14.25" stroke="black" stroke-width="1.5" stroke-linecap="round"/>
<path d="M8.25 6.75H4.5C4.5 11.25 6 14.25 9 14.25" stroke="black" stroke-width="1.5" stroke-linecap="round"/>
</svg>
