<svg width="40" height="40" viewBox="0 0 40 40" fill="none" xmlns="http://www.w3.org/2000/svg">
<path d="M20 0C31.0457 0 40 8.95431 40 20C40 31.0457 31.0457 40 20 40C8.95431 40 0 31.0457 0 20C0 8.95431 8.95431 0 20 0ZM16.75 17C14.6789 17 13 18.6789 13 20.75V29.25C13 31.3211 14.6789 33 16.75 33H22.7812C25.1112 33 27 31.1112 27 28.7812V21.2188C27 18.8888 25.1112 17 22.7812 17H16.75ZM20 6C17.2386 6 15 8.23858 15 11C15 13.7614 17.2386 16 20 16C22.7614 16 25 13.7614 25 11C25 8.23858 22.7614 6 20 6Z" fill="white"/>
</svg>
