<svg width="40" height="40" viewBox="0 0 40 40" fill="none" xmlns="http://www.w3.org/2000/svg">
<rect x="0.75" y="0.75" width="38.5" height="38.5" rx="19.25" stroke="white" stroke-width="1.5"/>
<path d="M23.7812 17.25C26.1112 17.25 28 19.1388 28 21.4688V29.9062C28 32.2362 26.1112 34.125 23.7812 34.125H16.75C14.7438 34.125 13.1055 32.5496 13.0049 30.5684L13 30.375V21C13 18.9289 14.6789 17.25 16.75 17.25H23.7812ZM16.75 19.125C15.7145 19.125 14.875 19.9645 14.875 21V30.375C14.875 31.4105 15.7145 32.25 16.75 32.25H23.7812C25.0757 32.25 26.125 31.2007 26.125 29.9062V21.4688C26.125 20.1743 25.0757 19.125 23.7812 19.125H16.75Z" fill="white"/>
<circle cx="20.5" cy="10.6875" r="3.75" stroke="white" stroke-width="1.875"/>
</svg>
