<svg width="30" height="30" viewBox="0 0 30 30" fill="none" xmlns="http://www.w3.org/2000/svg">
<path d="M26.6709 10.227C26.4967 10.362 23.4211 12.093 23.4211 15.942C23.4211 20.394 27.3347 21.969 27.4518 22.008C27.4338 22.104 26.8301 24.165 25.3884 26.265C24.1029 28.113 22.7603 29.958 20.7179 29.958C18.6755 29.958 18.1499 28.773 15.7921 28.773C13.4944 28.773 12.6774 29.997 10.8092 29.997C8.941 29.997 7.63747 28.287 6.1387 26.187C4.40265 23.721 3 19.89 3 16.254C3 10.422 6.79648 7.329 10.5329 7.329C12.5182 7.329 14.1732 8.631 15.4196 8.631C16.606 8.631 18.4562 7.251 20.7149 7.251C21.5709 7.251 24.6465 7.329 26.6709 10.227ZM19.6426 4.782C20.5767 3.675 21.2375 2.139 21.2375 0.603C21.2375 0.39 21.2195 0.174 21.1804 0C19.6606 0.057 17.8525 1.011 16.7622 2.274C15.9062 3.246 15.1073 4.782 15.1073 6.339C15.1073 6.573 15.1463 6.807 15.1643 6.882C15.2605 6.9 15.4166 6.921 15.5728 6.921C16.9364 6.921 18.6514 6.009 19.6426 4.782Z" fill="black"/>
</svg>
